<?xml version="1.0" standalone="no"?>
<!DOCTYPE svg PUBLIC "-//W3C//DTD SVG 20010904//EN"
 "http://www.w3.org/TR/2001/REC-SVG-20010904/DTD/svg10.dtd">
<svg version="1.0" xmlns="http://www.w3.org/2000/svg"
 width="1130.000000pt" height="1280.000000pt" viewBox="0 0 1130.000000 1280.000000"
 preserveAspectRatio="xMidYMid meet">
<g transform="translate(0.000000,1280.000000) scale(0.100000,-0.100000)"
fill="#000000" stroke="none">
<path d="M815 12783 c-77 -89 -76 -88 -77 -170 0 -56 -10 -116 -34 -212 -19
-74 -38 -139 -42 -145 -4 -6 -9 -90 -12 -186 l-5 -175 -13 109 c-11 92 -23
135 -79 280 -36 94 -83 210 -104 257 -22 48 -39 91 -39 96 0 5 -11 20 -25 33
-14 13 -28 39 -31 57 -8 44 -32 53 -131 53 -76 0 -76 0 -115 -40 -42 -46 -42
-41 -38 -225 1 -66 -3 -140 -9 -165 -6 -25 -16 -137 -21 -250 -6 -112 -17
-245 -25 -295 -20 -124 -19 -164 10 -283 14 -57 25 -120 25 -141 0 -34 8 -45
78 -112 124 -119 468 -409 662 -559 168 -130 455 -328 571 -394 155 -89 202
-117 254 -152 218 -149 446 -273 1100 -602 190 -96 487 -232 504 -232 6 0 11
-13 11 -28 0 -25 8 -32 73 -65 52 -27 90 -38 140 -43 l68 -7 -8 -41 c-10 -53
-6 -412 7 -541 38 -376 52 -486 65 -529 8 -27 15 -61 15 -76 0 -15 6 -45 14
-67 8 -22 24 -105 36 -184 15 -102 28 -156 45 -187 43 -77 140 -198 169 -212
32 -14 97 -108 122 -178 9 -26 36 -92 59 -147 83 -196 144 -384 145 -445 0
-13 6 -42 14 -65 8 -22 22 -67 31 -100 80 -284 224 -588 344 -726 27 -32 40
-39 70 -39 66 0 105 18 143 64 42 50 212 146 258 146 l28 0 -20 -72 c-12 -43
-23 -130 -28 -213 -5 -77 -16 -174 -24 -215 -23 -107 -20 -194 7 -271 20 -58
22 -80 20 -236 -2 -149 -6 -185 -28 -270 -15 -54 -41 -131 -59 -173 -18 -41
-39 -106 -46 -145 -7 -38 -23 -117 -35 -175 -23 -104 -42 -423 -36 -590 4 -99
42 -167 170 -303 68 -72 262 -247 341 -307 119 -91 183 -151 420 -390 164
-165 290 -283 353 -329 54 -41 119 -99 145 -131 26 -31 94 -110 152 -174 149
-167 265 -319 305 -401 43 -87 69 -215 62 -304 -6 -81 -21 -115 -61 -139 -18
-10 -44 -42 -60 -73 -28 -52 -184 -225 -236 -261 -14 -10 -43 -18 -68 -18 -25
0 -74 -13 -115 -29 -40 -16 -112 -41 -161 -56 -89 -27 -146 -66 -146 -101 0
-7 -13 -28 -29 -46 -38 -45 -51 -71 -51 -107 0 -72 165 -137 433 -171 168 -22
417 1 732 65 72 15 159 28 195 29 36 1 128 10 205 20 290 35 429 75 534 153
33 25 33 27 29 91 -4 57 -8 68 -34 91 -17 14 -39 31 -48 36 -15 8 -19 33 -27
135 -9 115 -13 132 -49 208 -22 45 -51 97 -65 116 -14 18 -25 40 -25 49 0 9
-20 33 -44 53 -24 20 -49 48 -55 61 -6 14 -47 69 -91 123 -44 55 -102 135
-129 179 -27 44 -60 94 -74 110 -14 17 -60 88 -103 158 -42 70 -100 164 -127
208 -28 44 -75 127 -106 184 -31 57 -80 147 -109 200 -29 53 -86 164 -128 246
-81 160 -251 424 -334 519 -27 31 -67 87 -89 124 -22 37 -58 91 -80 121 -48
64 -44 71 40 71 l55 0 48 123 c47 121 68 157 90 157 7 0 27 13 46 30 19 16 38
29 41 30 3 0 36 -38 72 -84 83 -104 473 -479 581 -557 21 -16 46 -43 55 -61
18 -36 110 -103 181 -133 31 -12 81 -19 160 -23 l115 -5 55 -57 c77 -81 340
-261 511 -350 143 -74 145 -76 269 -204 198 -204 347 -325 528 -433 53 -31
113 -69 132 -83 19 -15 49 -35 65 -44 29 -16 85 -56 253 -181 45 -33 104 -73
132 -90 145 -85 365 -286 416 -380 l19 -35 -25 -47 c-41 -77 -203 -226 -320
-294 -25 -15 -69 -56 -97 -91 -105 -129 -187 -188 -265 -188 -27 0 -55 -8 -77
-23 -20 -13 -61 -40 -92 -60 -30 -20 -62 -37 -70 -37 -28 0 -61 -46 -62 -86
-1 -36 -2 -37 -84 -75 -87 -41 -103 -58 -103 -111 0 -44 22 -73 72 -99 46 -23
-35 -24 928 2 353 9 402 12 460 31 36 11 173 73 305 138 167 82 266 124 324
139 47 11 103 33 124 48 68 47 122 118 141 184 21 77 20 105 -5 146 -21 33
-21 35 -3 49 18 13 17 14 -6 9 -23 -5 -28 0 -49 42 -13 26 -49 86 -80 133 -32
47 -79 121 -104 165 -25 44 -72 112 -103 150 -31 39 -90 113 -132 165 -42 52
-126 149 -187 215 -61 66 -128 143 -148 172 -21 28 -89 100 -152 158 -119 111
-154 161 -196 275 -11 32 -42 82 -71 115 -28 33 -84 111 -125 173 -62 94 -87
122 -152 171 -43 33 -102 90 -132 127 -57 70 -197 172 -307 223 -13 6 -67 53
-120 105 -53 51 -152 132 -218 179 -90 64 -135 104 -175 154 -29 37 -80 98
-113 134 -91 98 -124 149 -137 207 -8 39 -27 74 -72 134 -78 101 -111 155
-126 199 -6 20 -34 71 -62 115 -28 43 -64 105 -80 138 -17 32 -72 131 -123
220 -124 215 -216 392 -216 417 0 11 14 55 31 97 27 66 32 93 36 187 3 73 -1
143 -11 210 -9 55 -23 159 -30 230 -16 143 -33 254 -43 282 -4 10 -16 32 -28
48 -12 17 -39 73 -60 125 -21 52 -70 158 -109 236 -39 77 -79 158 -88 180 -50
116 -61 135 -85 153 -14 12 -31 21 -37 21 -6 0 -45 34 -86 76 -82 83 -126 108
-345 204 l-130 57 -7 89 c-7 86 -41 211 -86 314 -39 89 -150 227 -328 410
l-181 185 -100 202 c-132 263 -144 281 -358 518 -132 146 -169 193 -229 288
-77 124 -134 260 -146 348 -16 133 -42 194 -132 319 -72 99 -97 125 -193 198
-140 106 -188 130 -485 246 -140 54 -199 69 -357 92 -140 20 -132 12 -131 139
1 82 -7 100 -74 171 -44 47 -48 55 -38 74 14 26 0 68 -31 96 -19 17 -19 18 2
53 27 45 30 105 6 128 -17 17 -19 17 -57 -4 -21 -13 -55 -23 -74 -23 -43 0
-55 19 -63 98 -3 32 -11 67 -19 79 -22 36 -132 108 -249 163 -156 74 -222 90
-447 106 -78 5 -106 4 -140 -9 -24 -9 -72 -21 -107 -26 -35 -6 -100 -27 -145
-47 -187 -85 -191 -88 -240 -186 -26 -53 -36 -64 -59 -66 -21 -3 -31 -11 -39
-33 -7 -22 -14 -27 -21 -20 -6 6 -20 11 -30 11 -23 0 -203 63 -390 136 -127
50 -306 103 -352 104 -11 1 -103 29 -205 63 l-185 62 -22 45 c-41 84 -68 203
-78 350 -8 114 -33 286 -56 391 -10 48 -19 98 -19 113 0 14 -11 55 -25 92 -14
37 -25 85 -24 108 2 60 -12 139 -26 156 -7 8 -22 34 -33 56 -27 54 -78 71
-107 37z"/>
</g>
</svg>
