<?xml version="1.0" standalone="no"?>
<!DOCTYPE svg PUBLIC "-//W3C//DTD SVG 20010904//EN"
 "http://www.w3.org/TR/2001/REC-SVG-20010904/DTD/svg10.dtd">
<svg version="1.0" xmlns="http://www.w3.org/2000/svg"
 width="1063.000000pt" height="1280.000000pt" viewBox="0 0 1063.000000 1280.000000"
 preserveAspectRatio="xMidYMid meet">
<g transform="translate(0.000000,1280.000000) scale(0.100000,-0.100000)"
fill="#795548" stroke="none">
<path d="M4520 12705 c-157 -35 -312 -70 -345 -79 l-60 -15 100 5 c55 3 199
16 320 30 363 40 471 31 637 -52 48 -24 90 -40 93 -35 9 15 -11 56 -46 95 -61
70 -158 104 -314 111 -94 4 -116 1 -385 -60z"/>
<path d="M3636 12510 c-120 -38 -209 -124 -241 -234 -19 -62 -19 -198 -1 -249
19 -53 42 -75 90 -88 29 -8 58 -30 110 -84 95 -99 194 -144 260 -119 24 9 20
21 -34 94 -27 37 -62 94 -77 126 -25 52 -28 71 -28 159 0 121 11 148 121 287
41 51 74 98 74 104 0 30 -184 33 -274 4z"/>
<path d="M4075 12500 c-17 -5 -44 -23 -60 -40 -27 -28 -30 -37 -28 -90 2 -54
0 -61 -24 -77 -14 -10 -39 -31 -56 -46 -29 -27 -29 -30 -25 -100 8 -123 57
-209 253 -452 53 -66 110 -144 127 -172 16 -29 36 -53 43 -53 7 0 28 18 45 40
53 67 58 58 85 -170 19 -163 24 -190 35 -190 25 0 45 185 31 285 -17 120 -116
292 -278 483 -57 67 -67 104 -34 122 27 14 61 13 111 -5 l42 -15 -76 73 c-53
50 -76 79 -76 96 0 22 2 23 45 18 65 -9 173 -57 299 -132 61 -36 114 -65 118
-65 13 0 9 79 -6 108 -20 39 -116 127 -230 211 -59 43 -95 76 -89 82 31 31
527 -178 575 -242 10 -14 33 -74 52 -134 18 -61 42 -128 53 -150 32 -62 52
-130 46 -153 -3 -12 -15 -24 -27 -28 -57 -17 -67 -49 -40 -128 16 -45 15 -49
-11 -134 -15 -48 -32 -93 -38 -99 -15 -20 -59 -15 -169 17 -94 28 -148 37
-148 25 0 -3 14 -65 32 -138 32 -135 34 -137 52 -55 3 14 18 41 33 58 29 35
15 34 194 14 76 -9 92 18 124 220 8 54 27 126 41 160 42 99 42 105 -12 193
-50 82 -113 212 -134 276 -18 56 -7 62 108 62 114 0 157 18 216 86 44 52 60
97 47 130 -9 23 -10 23 -10 2 -2 -50 -125 -111 -247 -120 -115 -9 -284 33
-586 146 -211 79 -332 103 -403 81z"/>
<path d="M5115 12444 c-73 -35 -121 -38 -250 -19 -64 10 -118 16 -120 13 -8
-8 250 -79 285 -78 47 1 112 31 138 65 41 51 25 57 -53 19z"/>
<path d="M4660 11678 c0 -41 -3 -96 -6 -122 -7 -45 -6 -46 19 -46 50 0 61 66
27 166 -31 88 -40 89 -40 2z"/>
<path d="M7241 11664 c-25 -42 -27 -66 -6 -58 26 11 45 -16 45 -63 0 -54 -6
-66 -89 -173 -99 -129 -330 -354 -481 -470 -169 -130 -320 -267 -378 -342 -24
-31 -52 -59 -61 -61 -36 -8 -252 81 -516 213 -185 92 -310 148 -369 165 -49
14 -91 23 -93 21 -22 -22 106 -150 244 -245 159 -108 178 -137 170 -251 -6
-83 -50 -222 -98 -306 -36 -65 -36 -86 1 -132 73 -91 141 -284 186 -522 36
-190 39 -263 19 -418 -18 -143 -15 -192 17 -260 29 -61 48 -53 78 35 14 39 31
78 38 86 19 22 86 36 224 47 68 6 269 30 448 55 179 24 498 67 710 95 446 58
501 67 512 78 4 4 -10 27 -31 51 l-40 44 -133 -7 c-310 -16 -561 -56 -1184
-190 -351 -75 -481 -99 -498 -93 -9 4 -15 47 -19 139 -9 174 -37 360 -99 648
-43 202 -50 252 -52 355 -1 109 1 123 22 156 29 47 71 64 152 62 67 -1 270
-46 374 -82 33 -12 72 -21 89 -21 54 0 197 90 197 124 0 7 -7 27 -16 45 -32
64 15 132 190 271 107 85 134 113 328 350 102 125 182 203 262 259 57 40 58
41 34 50 -40 15 -48 62 -27 161 8 39 15 50 30 50 17 0 19 -8 19 -75 0 -50 4
-75 12 -75 17 0 117 80 145 117 32 42 26 57 -23 58 -28 1 -61 15 -119 52 -96
60 -159 93 -179 93 -8 0 -23 -16 -35 -36z m-745 -1259 c8 -21 -20 -62 -59 -85
-41 -25 -64 -25 -77 0 -16 29 4 58 53 81 51 23 76 24 83 4z"/>
<path d="M7054 11475 c-18 -20 -62 -79 -98 -133 -48 -73 -88 -118 -162 -184
-111 -97 -202 -188 -190 -188 4 0 31 11 58 25 229 115 502 412 457 496 -14 27
-27 24 -65 -16z"/>
<path d="M4200 11241 c-95 -97 -128 -124 -190 -155 l-75 -38 -105 7 c-108 7
-165 -3 -158 -28 7 -21 68 -35 198 -45 141 -11 258 -44 472 -134 148 -63 520
-246 712 -352 76 -42 142 -76 147 -76 4 0 19 14 33 31 46 54 34 95 -85 280
-111 174 -151 276 -130 331 23 60 53 53 396 -94 296 -127 471 -194 582 -223
109 -29 204 -33 223 -10 13 16 17 13 -90 52 -25 9 -184 78 -355 154 -468 207
-558 237 -681 226 -108 -10 -254 -77 -292 -135 -24 -37 -8 -36 53 3 32 20 62
34 69 32 6 -3 21 -36 34 -75 24 -73 98 -230 151 -320 17 -29 28 -58 25 -64
-10 -17 -64 0 -134 41 -162 96 -410 199 -727 301 -116 38 -193 68 -193 76 0 6
24 33 53 59 68 60 153 160 178 207 20 38 25 68 12 68 -5 -1 -60 -54 -123 -119z"/>
<path d="M3545 10911 c-75 -58 -219 -229 -438 -523 -96 -129 -149 -187 -299
-330 -216 -206 -336 -329 -363 -371 l-20 -32 21 15 c99 72 426 334 494 397
116 106 151 146 340 383 89 113 195 239 235 280 93 95 125 143 125 186 0 29
-4 34 -22 34 -13 0 -45 -18 -73 -39z"/>
<path d="M3905 10656 c-27 -13 -69 -38 -93 -55 -42 -31 -43 -32 -41 -90 2 -45
-3 -65 -17 -84 -23 -30 -158 -144 -399 -338 -435 -350 -447 -360 -467 -406
-37 -84 9 -139 157 -185 58 -18 235 -37 235 -25 0 3 -39 20 -86 38 -95 36
-159 77 -169 109 -13 41 101 199 209 291 34 28 127 96 208 150 99 67 168 123
215 172 120 128 159 143 183 71 8 -24 22 -40 46 -52 20 -9 58 -47 91 -89 101
-133 270 -268 465 -373 94 -50 118 -78 118 -134 0 -53 27 -87 153 -190 108
-89 126 -114 111 -154 -6 -15 -62 -97 -125 -182 -64 -85 -127 -175 -141 -200
-39 -66 -61 -154 -55 -214 4 -48 9 -55 77 -119 40 -37 114 -92 164 -121 270
-158 307 -178 321 -172 10 4 15 20 15 51 0 51 20 29 -227 250 -79 70 -143 131
-143 135 0 4 7 13 15 20 13 11 24 10 58 -1 82 -26 333 -160 426 -226 127 -91
264 -222 292 -279 33 -70 23 -162 -50 -435 -84 -318 -141 -474 -275 -769 -36
-79 -64 -145 -62 -147 2 -2 18 13 37 34 69 79 278 560 345 795 19 66 39 128
44 138 21 40 47 44 230 42 278 -4 511 39 808 150 262 97 418 174 599 293 53
36 107 65 118 65 12 0 30 -9 41 -21 16 -18 20 -49 29 -262 5 -133 9 -332 9
-442 -1 -192 -2 -207 -38 -370 -20 -93 -48 -233 -61 -310 -15 -88 -35 -166
-54 -210 -30 -71 -29 -105 4 -105 21 0 71 72 89 128 24 74 86 357 86 394 0 18
7 60 15 93 8 33 22 116 30 185 18 147 42 207 93 229 17 8 32 22 32 31 0 9 -25
94 -55 190 -113 355 -116 484 -20 685 43 89 103 161 189 227 43 33 63 54 53
56 -27 5 -169 -56 -307 -133 -74 -41 -192 -104 -262 -140 -117 -60 -155 -85
-128 -85 6 0 90 34 187 75 101 43 181 71 186 66 17 -17 -13 -88 -53 -129 -46
-45 -401 -235 -566 -302 -390 -159 -774 -225 -974 -167 -59 17 -62 37 -11 93
60 64 65 83 46 178 -47 231 -137 347 -495 633 -200 161 -327 293 -281 293 12
0 265 -177 357 -251 110 -87 148 -87 186 -1 31 72 27 107 -18 153 -61 62 -178
141 -364 245 -204 113 -469 284 -534 344 -43 39 -60 80 -35 80 6 0 146 -75
312 -167 166 -93 309 -171 319 -175 14 -6 19 0 28 30 19 67 22 109 11 130 -6
12 -83 69 -171 126 -88 58 -160 112 -160 120 0 8 18 36 40 61 22 25 40 53 40
60 0 20 -33 35 -190 90 -659 230 -881 349 -920 496 -6 22 -14 39 -18 39 -4 0
-29 -11 -57 -24z m719 -569 c275 -123 299 -141 275 -193 -9 -17 -24 -30 -37
-32 -45 -7 -250 88 -371 172 -67 46 -151 133 -151 157 0 20 44 3 284 -104z
m374 -1152 c30 -14 81 -46 115 -71 85 -64 217 -176 217 -183 0 -3 -4 -13 -10
-21 -12 -19 -43 -8 -207 71 -196 96 -268 166 -213 211 29 23 34 23 98 -7z"/>
<path d="M2467 9553 c-4 -3 -7 -21 -7 -38 0 -76 81 -136 274 -200 122 -41 185
-68 483 -208 325 -152 407 -205 508 -324 33 -39 68 -75 78 -82 20 -13 273 -52
292 -44 27 10 46 56 64 156 18 99 18 103 0 167 -11 36 -19 81 -19 101 0 42
-11 49 -73 49 -108 1 -243 44 -468 150 -91 43 -177 82 -192 85 -74 19 14 -54
151 -125 114 -59 156 -91 188 -145 34 -60 46 -172 20 -198 -21 -21 -43 -13
-139 51 -222 149 -538 321 -736 401 -77 31 -156 72 -213 112 -124 84 -191 113
-211 92z"/>
<path d="M7870 9250 c0 -13 38 -61 100 -125 96 -101 100 -106 100 -150 0 -25
-13 -81 -30 -127 -42 -115 -55 -191 -90 -513 -56 -513 -78 -653 -160 -1015
-58 -253 -76 -356 -85 -465 -3 -44 -17 -170 -30 -280 -15 -124 -24 -245 -23
-315 2 -96 -3 -140 -30 -266 -19 -88 -32 -180 -32 -221 0 -91 24 -226 54 -307
23 -61 75 -150 83 -143 2 2 -5 42 -16 88 -50 214 -53 522 -7 734 14 66 26 137
26 157 0 48 -5 45 261 167 118 54 243 112 279 128 36 17 171 79 300 138 129
59 357 164 505 232 475 220 600 265 811 293 267 35 327 -1 368 -221 21 -112
20 -203 -3 -330 -33 -179 -66 -251 -272 -592 -230 -378 -592 -868 -707 -955
-101 -78 -212 -129 -1632 -759 -728 -323 -1084 -482 -1300 -580 -107 -49 -341
-156 -520 -237 -179 -82 -413 -189 -520 -238 -630 -291 -1597 -712 -1790 -780
-47 -17 -218 -93 -380 -170 -162 -78 -351 -166 -420 -198 -69 -32 -188 -87
-265 -123 -765 -357 -922 -402 -1433 -414 -255 -6 -440 7 -583 42 -136 33
-194 60 -213 99 -26 56 -37 156 -26 243 15 107 49 279 67 331 27 82 177 297
345 495 188 222 301 314 604 488 248 142 642 344 756 388 13 5 174 74 359 155
185 80 344 146 352 146 19 0 33 -42 96 -290 86 -341 205 -693 261 -774 80
-118 145 -125 234 -26 50 55 76 114 76 172 0 37 -4 50 -20 58 -35 19 -57 -4
-81 -83 -25 -86 -33 -97 -69 -97 -68 0 -155 152 -245 426 -130 394 -188 619
-215 826 -9 76 -20 142 -24 145 -11 12 -40 -12 -50 -40 -7 -18 -4 -59 7 -128
10 -57 14 -106 10 -110 -5 -3 -125 -56 -268 -117 -342 -145 -692 -307 -818
-378 -512 -287 -694 -406 -837 -546 -89 -86 -447 -503 -493 -573 -64 -98 -159
-420 -196 -665 -22 -141 -17 -316 10 -358 19 -31 102 -70 174 -82 382 -61 796
-63 1122 -5 78 13 186 39 240 56 99 32 961 424 1475 672 149 72 174 81 181 70
3 -5 -7 -60 -23 -123 -55 -229 -62 -310 -70 -790 -8 -476 -9 -486 -65 -636
-45 -121 -101 -201 -240 -343 -164 -168 -269 -243 -415 -297 -32 -11 -25 -13
87 -13 67 -1 123 3 125 7 1 5 26 23 53 42 77 52 296 276 354 363 77 115 128
229 156 347 22 97 25 136 34 525 8 345 14 440 30 530 25 135 71 318 104 405
l24 65 224 91 c123 49 436 184 694 298 259 115 574 255 700 311 127 56 581
262 1010 457 429 195 879 398 1000 451 121 53 373 164 560 247 l340 150 360
20 c406 23 435 23 435 12 0 -5 -37 -27 -82 -50 -662 -329 -1143 -912 -1323
-1605 -63 -246 -79 -377 -90 -742 -3 -115 -13 -329 -21 -475 -25 -479 -17
-753 31 -985 23 -110 77 -295 113 -385 l30 -75 66 -3 c36 -2 66 -1 66 2 0 3
-20 54 -44 113 -80 194 -142 443 -165 655 -15 133 -13 364 4 668 8 140 15 352
15 470 0 369 52 648 175 952 174 426 448 782 810 1054 280 210 551 340 884
425 85 22 157 42 159 44 2 2 -15 13 -39 25 -45 24 -205 52 -248 44 -23 -4
-742 -44 -791 -44 -41 0 -17 22 66 60 47 22 147 67 223 99 256 112 439 228
576 366 328 331 649 750 922 1205 167 280 194 331 221 430 65 234 67 457 6
607 -56 135 -171 179 -386 149 -269 -37 -400 -90 -1661 -667 -262 -121 -484
-219 -492 -219 -19 0 -20 73 -5 305 15 232 26 298 81 494 83 292 119 458 224
1051 31 173 74 399 96 501 21 102 39 198 39 212 0 18 -13 36 -46 64 -25 21
-77 66 -116 101 -39 35 -88 72 -109 83 l-39 19 0 -20z m1240 -4268 c0 -14 -83
-88 -170 -152 -99 -73 -261 -156 -560 -287 -118 -52 -285 -126 -370 -163 -666
-292 -1548 -687 -1970 -881 -278 -127 -707 -321 -955 -431 -1225 -543 -1358
-601 -1580 -684 -55 -20 -194 -82 -310 -137 -208 -98 -522 -245 -1075 -502
-281 -130 -572 -238 -710 -264 -113 -21 -331 -41 -515 -47 -369 -12 -712 48
-771 134 -30 43 -45 155 -33 240 16 114 35 108 41 -12 4 -64 7 -71 38 -97 45
-38 101 -55 240 -75 241 -34 589 -44 805 -24 171 16 369 56 495 99 63 21 277
114 475 206 198 92 450 209 560 260 110 51 292 136 405 190 113 53 295 132
405 175 110 43 220 87 245 98 25 11 236 104 470 207 234 103 538 239 675 302
138 63 374 171 525 240 151 69 516 234 810 368 294 133 697 314 895 400 198
87 491 216 650 288 160 71 450 200 645 287 195 87 411 183 480 213 120 54 160
66 160 49z"/>
<path d="M4552 8488 c-41 -45 -65 -146 -82 -354 -15 -166 -8 -888 9 -1054 26
-248 96 -621 135 -713 16 -40 53 -63 115 -73 40 -6 42 -5 98 53 84 86 173 247
149 270 -13 14 -41 -14 -92 -90 -116 -176 -144 -171 -178 29 -17 97 -88 672
-105 849 -31 321 -42 748 -25 998 3 59 5 107 2 107 -2 0 -14 -10 -26 -22z"/>
<path d="M4268 6693 c-81 -74 -223 -318 -306 -528 -21 -55 -78 -214 -126 -353
-49 -141 -152 -405 -232 -593 -155 -364 -192 -464 -201 -540 -14 -117 62 -11
165 231 100 234 255 521 429 794 45 71 80 133 77 138 -9 14 -40 9 -56 -9 -8
-10 -30 -46 -48 -80 -40 -78 -65 -101 -88 -86 -27 17 -21 139 12 238 37 107
94 228 146 306 23 35 112 132 197 215 l154 151 -10 63 c-17 102 -44 114 -113
53z"/>
<path d="M6905 6657 c-12 -19 -13 -34 -6 -73 13 -68 45 -186 93 -338 33 -107
37 -131 26 -141 -7 -7 -200 -99 -428 -203 -228 -105 -489 -225 -580 -267 -214
-100 -972 -449 -1350 -622 -162 -74 -412 -189 -554 -254 -143 -66 -263 -116
-268 -111 -4 4 31 72 78 152 175 296 500 869 566 999 91 181 180 411 158 411
-20 0 -75 -100 -227 -411 -219 -447 -386 -739 -638 -1119 -130 -194 -165 -265
-165 -330 0 -51 -32 -88 -169 -193 -69 -54 -108 -91 -117 -113 -8 -20 -14 -71
-14 -126 -1 -51 -7 -120 -15 -153 -20 -79 -31 -250 -17 -258 16 -11 50 73 98
242 31 106 43 166 39 186 -20 96 -18 111 16 149 18 21 75 67 127 103 99 69
137 114 126 148 -17 52 -14 91 8 128 24 40 28 42 508 262 63 29 223 102 355
162 132 61 348 160 480 221 132 60 359 165 505 232 146 68 351 162 455 210
105 48 289 134 410 190 558 259 637 293 649 278 7 -7 54 -139 106 -293 51
-154 104 -304 117 -333 36 -76 95 -146 145 -171 81 -39 89 -22 27 60 -105 141
-158 273 -245 618 -69 272 -208 747 -226 768 -17 21 -56 15 -73 -10z"/>
<path d="M9630 4206 c0 -13 122 -220 167 -284 78 -111 152 -190 199 -212 43
-21 44 -21 81 -3 l38 18 -1 65 c-2 81 -28 144 -83 196 -68 65 -401 247 -401
220z m239 -177 c112 -63 172 -146 155 -214 -11 -43 -46 -33 -92 28 -53 69
-142 200 -142 209 0 15 23 8 79 -23z"/>
<path d="M10102 3168 c14 -24 40 -70 58 -103 85 -152 225 -326 289 -360 36
-18 81 -13 106 12 21 20 19 106 -2 167 -27 74 -90 130 -254 223 -207 118 -234
126 -197 61z m223 -143 c79 -44 143 -107 151 -150 17 -94 -22 -112 -84 -38
-41 49 -120 161 -141 201 -17 32 0 29 74 -13z"/>
</g>
</svg>
