<?xml version="1.0" standalone="no"?>
<!DOCTYPE svg PUBLIC "-//W3C//DTD SVG 20010904//EN"
 "http://www.w3.org/TR/2001/REC-SVG-20010904/DTD/svg10.dtd">
<svg version="1.0" xmlns="http://www.w3.org/2000/svg"
 width="865.000000pt" height="1280.000000pt" viewBox="0 0 865.000000 1280.000000"
 preserveAspectRatio="xMidYMid meet">
<g transform="translate(0.000000,1280.000000) scale(0.100000,-0.100000)"
fill="#009688" stroke="none">
<path d="M3765 12781 c-38 -11 -124 -40 -190 -65 -66 -26 -156 -53 -200 -61
-98 -17 -149 -35 -206 -71 -32 -20 -68 -31 -132 -40 -137 -19 -168 -39 -255
-170 -40 -60 -95 -131 -122 -159 -64 -67 -76 -95 -83 -195 -9 -135 -73 -287
-149 -356 -22 -19 -82 -56 -134 -81 -107 -51 -162 -104 -188 -180 -22 -63 -20
-94 9 -209 14 -54 25 -106 25 -116 0 -31 -51 -78 -131 -119 -115 -60 -156
-119 -174 -250 -17 -121 56 -360 154 -504 32 -46 26 -80 -34 -205 -69 -144
-71 -172 -15 -279 76 -146 189 -259 303 -304 58 -22 160 -27 194 -9 20 11 22
9 37 -46 30 -106 78 -226 136 -338 54 -106 56 -113 42 -137 -13 -20 -32 -28
-118 -46 -81 -17 -108 -19 -127 -10 -21 9 -40 6 -114 -19 -48 -17 -124 -36
-168 -42 -118 -17 -142 -27 -153 -58 -7 -21 -28 -37 -83 -64 -181 -90 -311
-202 -415 -360 -80 -122 -136 -176 -359 -352 -228 -178 -335 -281 -445 -426
-48 -63 -139 -171 -201 -239 -300 -327 -376 -435 -439 -621 -34 -100 -38 -260
-11 -375 38 -160 173 -409 454 -840 82 -126 163 -257 180 -290 59 -116 78
-120 157 -40 58 58 70 64 90 40 7 -8 19 -15 27 -15 22 0 229 -148 290 -207 34
-33 53 -60 53 -75 0 -37 38 -165 64 -216 43 -83 88 -126 153 -146 l59 -18 17
-336 c10 -186 22 -418 28 -517 11 -178 7 -455 -6 -506 -6 -22 0 -34 30 -67 71
-79 199 -145 343 -178 l69 -16 7 -60 c3 -34 6 -133 6 -222 0 -89 5 -210 11
-271 6 -60 12 -121 12 -134 2 -22 -22 -37 -258 -160 -144 -75 -282 -148 -308
-163 -26 -15 -45 -23 -42 -18 3 4 -3 7 -12 5 -10 -2 -49 -9 -88 -15 -278 -45
-456 -185 -480 -376 -13 -100 25 -228 103 -347 95 -145 258 -249 512 -325 131
-40 206 -61 255 -71 28 -6 73 -16 100 -22 71 -17 362 -19 470 -3 164 24 292
44 430 70 378 69 530 81 852 66 131 -6 249 -14 263 -17 46 -10 524 -14 580 -5
30 5 70 12 89 15 44 7 160 40 289 82 57 18 118 35 135 38 18 3 46 10 62 15 60
18 153 29 305 35 385 14 471 35 579 143 124 124 144 316 54 505 -73 150 -189
250 -363 311 -55 20 -287 35 -276 18 3 -6 -38 4 -91 23 -80 27 -345 93 -427
107 -19 3 -20 12 -17 203 2 176 -7 427 -24 652 l-6 72 106 52 c105 51 269 152
292 180 12 14 65 423 100 764 25 245 25 795 0 953 -32 204 -94 381 -172 493
-280 403 -327 507 -326 709 0 116 26 222 106 440 31 85 79 218 107 295 28 77
53 144 58 148 4 5 43 -1 86 -12 204 -51 419 -87 1099 -185 467 -68 631 -94
775 -125 70 -15 130 -1 178 42 12 11 22 16 22 11 0 -11 -50 -248 -53 -250 -1
0 -121 -20 -267 -44 -169 -27 -271 -47 -282 -57 -18 -16 -38 -93 -38 -149 0
-26 5 -37 23 -45 42 -19 1702 -346 1722 -339 30 10 47 55 49 128 l1 67 -212
140 c-116 77 -215 143 -219 147 -3 4 22 153 57 330 52 268 67 327 85 346 33
34 55 143 52 259 -2 92 -1 100 24 136 34 48 52 135 44 211 -6 61 -16 7 324
1731 38 193 90 455 115 582 48 242 48 265 8 277 -10 3 -46 10 -81 17 -53 10
-65 16 -77 40 -23 44 -63 69 -109 69 -38 0 -81 -19 -97 -43 -4 -5 -97 10 -210
32 -231 47 -250 48 -272 23 -23 -25 -22 -33 15 -103 38 -73 46 -145 28 -257
-6 -42 -52 -277 -100 -522 -48 -245 -130 -666 -181 -936 l-93 -490 -35 12
c-44 16 -56 17 -103 4 -91 -26 -137 -101 -136 -220 1 -76 -18 -159 -32 -143
-4 4 -17 48 -30 96 -26 98 -41 116 -118 141 -68 21 -158 33 -422 56 -129 11
-284 27 -344 36 -187 27 -663 168 -981 291 -76 30 -141 55 -142 57 -2 2 11 20
28 42 178 222 281 455 353 800 77 373 65 337 186 540 60 100 133 227 161 281
28 54 53 100 55 102 1 2 17 -7 35 -20 l32 -23 24 28 c12 15 23 31 23 35 0 5
-18 20 -41 35 -30 21 -39 32 -33 44 4 9 23 73 42 142 20 69 37 126 38 128 1 1
24 -11 52 -28 63 -40 115 -47 161 -23 188 99 196 548 17 926 -34 72 -40 77
-118 127 -159 100 -157 99 -200 184 -23 45 -59 140 -80 211 -62 205 -80 225
-210 235 -82 6 -84 7 -182 74 -55 37 -149 92 -210 121 -109 53 -112 55 -164
129 -100 145 -184 177 -389 150 -111 -15 -128 -15 -185 -1 -35 9 -101 21 -148
28 -62 8 -106 22 -162 50 -176 88 -277 105 -413 70z m4440 -2584 c1 -1 9 -23
19 -49 20 -54 53 -85 101 -94 44 -8 99 19 125 61 16 26 25 31 45 27 14 -2 25
-9 25 -14 0 -6 -65 -342 -145 -746 -80 -405 -145 -738 -145 -742 0 -9 -557
-12 -563 -3 -7 11 112 644 122 655 3 3 29 2 58 -4 46 -9 53 -14 58 -39 4 -16
19 -38 33 -50 l27 -22 -50 9 c-93 14 -110 12 -113 -17 -3 -25 -1 -26 97 -46
85 -17 101 -18 106 -6 9 25 6 51 -7 56 -7 3 -3 6 10 6 79 3 120 110 72 188
-13 22 -18 42 -14 61 l6 29 -101 20 c-55 11 -103 18 -106 15 -3 -3 -5 -18 -5
-33 0 -25 4 -28 50 -34 46 -6 81 -25 46 -25 -9 0 -25 -13 -37 -29 -19 -27 -23
-28 -66 -20 -26 5 -48 10 -49 12 -2 2 23 138 55 302 32 165 62 317 65 338 8
46 35 48 47 4 4 -16 13 -35 20 -43 23 -28 109 -11 109 21 0 19 21 19 111 0 40
-9 73 -14 75 -13 1 2 4 16 6 32 l3 30 -110 23 c-60 13 -139 28 -174 33 -70 10
-74 12 -76 38 -1 9 -5 42 -9 73 l-7 56 142 -28 c78 -16 143 -30 144 -32z
m-6297 -3679 c76 -273 92 -353 92 -472 0 -166 -40 -243 -171 -331 -66 -45 -79
-50 -119 -47 -32 2 -69 -5 -128 -27 -101 -37 -137 -39 -177 -7 l-30 24 48 51
c26 27 47 56 47 64 0 14 -43 87 -178 299 -83 132 -197 346 -189 354 3 3 114
43 248 89 245 85 429 166 463 204 11 12 22 21 25 21 3 0 34 -100 69 -222z
m1574 -3782 c130 -1 189 -5 192 -12 3 -7 8 -74 11 -150 8 -158 -4 -298 -37
-418 -16 -62 -18 -83 -9 -97 6 -10 11 -30 11 -44 0 -22 -4 -25 -37 -26 -71 -1
-168 -10 -203 -20 -19 -5 -52 -9 -72 -9 -26 0 -38 -5 -41 -17 -3 -12 -5 -10
-6 7 -1 14 -12 79 -26 144 -15 78 -21 125 -15 136 6 10 4 67 -5 146 -27 236
-41 385 -37 389 2 2 23 -3 45 -12 32 -12 87 -16 229 -17z"/>
<path d="M7950 9916 c0 -14 0 -29 0 -33 -1 -8 146 -42 181 -43 10 0 19 11 22
28 3 15 4 28 3 29 -1 2 -40 10 -87 18 -46 9 -92 18 -101 21 -14 4 -18 -1 -18
-20z"/>
<path d="M7918 9761 c-4 -28 -2 -30 41 -40 25 -5 70 -15 99 -22 29 -6 54 -10
56 -8 2 2 6 16 10 31 7 31 15 27 -112 53 -94 19 -89 20 -94 -14z"/>
<path d="M8165 9714 c-14 -15 -27 -41 -31 -59 -19 -105 96 -181 159 -105 46
54 43 115 -5 168 -31 32 -91 30 -123 -4z"/>
<path d="M7890 9611 c0 -28 3 -30 58 -41 31 -7 75 -16 97 -20 22 -5 41 -7 43
-6 1 2 4 16 5 32 2 27 0 29 -78 45 -117 25 -125 25 -125 -10z"/>
<path d="M7776 9043 c-17 -42 -8 -48 89 -66 53 -10 100 -15 105 -12 6 3 10 17
10 30 0 20 -7 25 -52 34 -135 28 -147 29 -152 14z"/>
<path d="M8013 8946 c-34 -30 -39 -92 -9 -125 64 -70 196 -20 182 68 -12 77
-112 110 -173 57z"/>
<path d="M7744 8885 c-4 -14 -4 -29 -1 -32 13 -12 191 -43 200 -34 5 5 7 19 5
32 -3 21 -13 25 -88 41 -110 22 -109 22 -116 -7z"/>
<path d="M7714 8735 c-4 -14 -4 -28 -1 -31 7 -8 191 -42 200 -37 4 2 7 17 7
32 0 27 -3 28 -87 44 -112 22 -111 22 -119 -8z"/>
<path d="M8205 10988 c-28 -16 -35 -28 -35 -68 0 -41 7 -53 37 -69 31 -16 41
-14 68 14 16 15 25 36 25 55 0 19 -9 40 -25 55 -27 28 -40 30 -70 13z"/>
<path d="M8399 10671 c-62 -62 -20 -171 66 -171 27 0 44 8 66 29 62 62 20 171
-66 171 -27 0 -44 -8 -66 -29z"/>
<path d="M8014 10651 c-52 -24 -74 -55 -74 -104 0 -91 58 -135 173 -129 43 3
97 59 104 108 13 102 -102 172 -203 125z"/>
</g>
</svg>
