<?xml version="1.0" standalone="no"?>
<!DOCTYPE svg PUBLIC "-//W3C//DTD SVG 20010904//EN"
 "http://www.w3.org/TR/2001/REC-SVG-20010904/DTD/svg10.dtd">
<svg version="1.0" xmlns="http://www.w3.org/2000/svg"
 width="1280.000000pt" height="1138.000000pt" viewBox="0 0 1280.000000 1138.000000"
 preserveAspectRatio="xMidYMid meet">
<g transform="translate(0.000000,1138.000000) scale(0.100000,-0.100000)"
fill="#000000" stroke="none">
<path d="M7248 11374 c-3 -3 -66 -12 -139 -20 -74 -8 -161 -22 -194 -30 -341
-88 -533 -316 -575 -683 -5 -46 -14 -88 -21 -91 -6 -4 -50 -10 -97 -14 -343
-26 -702 -90 -702 -126 0 -51 251 -111 610 -145 252 -23 252 -23 277 -47 31
-29 29 -45 -12 -169 -79 -232 -115 -418 -122 -624 -8 -233 20 -356 107 -472
22 -28 62 -66 90 -84 28 -18 49 -37 47 -42 -1 -5 -41 -23 -87 -41 -186 -70
-365 -201 -611 -446 -241 -240 -444 -490 -684 -840 -43 -63 -94 -133 -112
-156 -76 -95 -93 -190 -48 -281 22 -42 95 -113 457 -439 237 -214 438 -393
446 -398 10 -6 22 2 44 28 16 20 33 36 37 36 5 0 41 -44 82 -97 41 -54 118
-151 171 -216 107 -131 95 -99 112 -304 3 -34 2 -64 -3 -67 -5 -3 -30 3 -55
15 -57 25 -94 19 -142 -23 -35 -31 -35 -31 -57 -11 -12 10 -58 52 -103 91 -44
40 -85 72 -90 72 -9 0 -70 -61 -181 -180 l-43 -46 65 -97 c36 -53 65 -100 65
-105 0 -4 -14 -18 -31 -31 -43 -32 -69 -79 -69 -128 0 -37 7 -49 63 -110 34
-37 103 -118 153 -178 85 -102 92 -114 96 -163 6 -67 33 -98 94 -107 69 -10
49 109 174 -1035 33 -305 63 -578 66 -606 l6 -51 96 -6 c54 -4 172 -10 264
-13 92 -4 171 -10 177 -14 6 -3 47 -202 90 -441 l78 -434 13 -302 c7 -166 9
-306 6 -312 -4 -6 -48 -42 -99 -79 -272 -202 -438 -380 -467 -504 -18 -72 -2
-102 64 -127 177 -66 345 -49 546 55 122 63 209 130 347 271 67 67 125 123
128 123 4 0 55 -45 113 -100 269 -251 468 -360 654 -360 134 1 196 42 212 142
8 49 -8 142 -35 206 -50 115 -192 290 -360 439 l-46 41 -6 244 c-4 133 -12
294 -17 355 -9 93 -8 133 5 230 19 141 92 508 105 533 7 14 30 18 122 24 233
14 438 77 552 169 l29 23 -26 75 c-83 241 -128 580 -148 1104 -10 268 -5 727
8 761 2 6 36 33 74 58 38 25 69 52 69 60 0 7 -41 186 -90 397 -50 211 -88 393
-86 404 9 33 134 185 154 185 9 0 60 -42 111 -94 74 -74 109 -101 163 -126 47
-22 100 -60 166 -119 l97 -87 3 -60 c7 -127 -28 -597 -64 -853 -8 -58 -11
-108 -7 -112 5 -3 50 -17 101 -29 52 -12 96 -28 98 -35 4 -10 -63 -1109 -116
-1895 -44 -661 -100 -1549 -100 -1590 l0 -40 50 0 c30 0 50 -4 50 -11 0 -6
-22 -50 -49 -98 -102 -181 -145 -306 -145 -426 -1 -134 46 -194 172 -217 154
-29 337 58 529 250 155 155 247 296 274 421 7 31 16 61 22 68 5 7 40 13 85 15
l76 3 83 490 c348 2054 342 2018 353 2029 16 16 -16 175 270 -1359 67 -357
143 -769 171 -914 27 -145 49 -267 49 -272 0 -5 46 -9 103 -9 l104 0 24 -52
c60 -129 276 -369 416 -462 118 -77 182 -100 288 -100 75 -1 98 3 137 22 173
86 120 383 -138 773 -24 37 -44 72 -44 79 0 6 11 26 24 43 l25 32 -94 890
c-52 490 -153 1445 -225 2124 -71 679 -130 1246 -130 1260 0 20 12 34 52 61
29 19 123 87 209 151 427 319 657 576 728 815 26 88 26 106 1 172 -11 29 -20
67 -20 85 0 45 -71 277 -137 442 -143 361 -318 639 -545 862 -185 183 -342
290 -558 384 -212 91 -466 214 -475 229 -4 7 -10 43 -13 80 l-5 68 72 36 c203
102 334 242 356 381 12 80 13 80 68 103 29 12 84 47 122 77 l69 55 85 0 c170
0 366 43 419 92 37 35 44 63 26 106 -39 96 -227 233 -514 377 -60 30 -111 59
-115 65 -4 6 19 109 49 228 31 120 60 242 66 270 29 157 -73 310 -273 406
-158 77 -327 116 -665 156 -214 25 -249 25 -385 0 -143 -25 -196 -44 -245 -86
-47 -40 -46 -36 -92 -349 -17 -115 -35 -219 -39 -231 -7 -15 -93 -55 -332
-156 -178 -75 -335 -139 -349 -143 -43 -12 -70 -35 -70 -58 0 -53 114 -119
336 -196 l139 -48 6 -94 c3 -52 11 -111 18 -131 14 -42 62 -88 92 -88 10 0 19
-3 19 -7 6 -261 22 -350 88 -488 72 -149 184 -258 350 -338 45 -22 82 -43 82
-48 0 -9 -14 -13 -507 -163 -214 -65 -323 -102 -346 -120 -33 -25 -174 -174
-296 -313 -35 -40 -68 -73 -73 -73 -5 0 -73 42 -151 94 -78 52 -191 122 -252
157 -116 66 -406 209 -424 209 -18 0 -12 27 20 88 51 98 70 189 76 357 8 235
-32 462 -136 767 -32 95 -51 134 -105 209 -63 88 -75 112 -58 122 4 3 68 10
142 17 382 33 694 94 762 149 l23 20 -38 16 c-81 34 -368 75 -707 100 -118 9
-224 18 -236 20 -17 4 -24 20 -42 115 -64 325 -232 557 -467 645 -119 45 -326
80 -347 59z m4696 -4283 c119 -168 216 -312 216 -322 0 -14 -292 -380 -368
-462 -45 -48 -39 -102 -82 717 -10 208 -17 383 -13 388 8 15 16 5 247 -321z
m-2364 -182 c0 -45 -31 -495 -35 -506 -2 -7 -8 -13 -13 -13 -9 0 -179 189
-195 217 -4 7 32 64 87 137 52 70 103 140 113 156 20 35 43 39 43 9z"/>
<path d="M2145 11059 c-369 -36 -602 -218 -672 -524 -24 -107 -24 -317 0 -440
l18 -90 -239 -640 c-227 -606 -239 -641 -226 -667 35 -67 219 -127 448 -146
49 -4 91 -12 93 -18 2 -6 -34 -25 -79 -42 -362 -137 -862 -640 -1328 -1337
-29 -44 -68 -97 -86 -118 -30 -36 -74 -136 -74 -170 0 -9 12 -43 27 -77 25
-59 44 -78 469 -461 243 -219 447 -399 453 -399 6 0 20 14 33 30 12 17 29 30
37 30 9 0 44 -37 78 -83 34 -45 109 -140 167 -211 115 -140 110 -128 120 -294
6 -92 -3 -108 -46 -78 -37 27 -99 20 -147 -15 -49 -35 -35 -42 -163 74 -48 43
-91 77 -95 75 -18 -7 -213 -216 -213 -227 0 -6 27 -52 60 -101 33 -49 60 -92
60 -96 0 -4 -23 -31 -50 -60 -45 -48 -50 -57 -50 -99 0 -42 5 -52 53 -103 30
-31 135 -155 235 -274 132 -159 182 -227 186 -250 6 -37 3 -10 86 -778 88
-804 92 -845 96 -849 2 -2 121 -9 264 -16 161 -7 265 -16 272 -23 6 -6 46
-202 88 -434 77 -423 77 -423 89 -688 6 -146 11 -288 11 -316 l0 -50 -127 -95
c-164 -121 -367 -321 -409 -404 -40 -77 -47 -117 -30 -159 12 -28 24 -37 77
-55 282 -97 622 43 928 384 35 39 67 72 73 73 5 2 48 -34 96 -80 233 -224 428
-347 602 -378 117 -21 234 11 267 74 25 45 22 165 -4 238 -47 128 -178 299
-328 428 l-87 75 6 55 c3 30 12 123 21 205 18 159 16 358 -4 408 -6 15 -19 30
-28 34 -37 14 -37 11 8 282 38 225 76 393 92 403 6 4 42 8 79 8 85 0 201 16
303 41 94 24 250 96 284 132 l23 26 -25 73 c-53 153 -93 376 -121 663 -22 217
-36 756 -28 1000 l7 200 70 48 c39 26 71 56 73 65 2 10 -38 192 -88 406 l-91
387 27 47 c15 26 130 151 255 277 306 310 429 456 590 703 86 130 215 387 252
500 l28 84 -33 51 c-103 161 -347 417 -549 573 -221 173 -467 323 -752 459
-91 44 -167 85 -167 91 0 6 52 47 115 93 l115 82 0 102 c0 262 -74 630 -207
1031 l-66 199 36 30 c43 34 48 70 17 110 -23 29 -124 95 -192 125 -53 23 -51
18 -68 166 -22 198 -99 367 -224 491 -183 181 -431 248 -791 214z m1826 -3750
c267 -146 350 -196 346 -208 -2 -9 -119 -195 -261 -413 l-256 -397 0 -58 c0
-84 -12 -97 -77 -83 -28 6 -56 17 -61 23 -5 7 -22 253 -36 547 -14 294 -29
590 -33 658 -5 111 -4 122 11 122 9 0 175 -86 367 -191z m-2681 -120 c10 -118
33 -373 50 -567 18 -194 29 -359 26 -367 -4 -12 -28 -15 -111 -15 -120 0 -129
6 -96 61 l20 35 -259 259 c-143 143 -260 266 -260 273 0 14 21 34 358 341 145
132 237 210 243 204 5 -5 18 -106 29 -224z"/>
<path d="M5994 604 c-9 -33 -19 -64 -21 -71 -3 -7 21 -25 54 -42 75 -38 165
-101 248 -175 74 -66 202 -214 237 -276 l23 -40 143 0 143 0 17 37 c10 24 17
64 17 108 0 57 -5 81 -29 130 -54 109 -195 231 -391 336 l-79 43 -172 4 -173
4 -17 -58z"/>
</g>
</svg>
