<?xml version="1.0" standalone="no"?>
<!DOCTYPE svg PUBLIC "-//W3C//DTD SVG 20010904//EN"
 "http://www.w3.org/TR/2001/REC-SVG-20010904/DTD/svg10.dtd">
<svg version="1.0" xmlns="http://www.w3.org/2000/svg"
 width="928.000000pt" height="1280.000000pt" viewBox="0 0 928.000000 1280.000000"
 preserveAspectRatio="xMidYMid meet">
<g transform="translate(0.000000,1280.000000) scale(0.100000,-0.100000)"
fill="#000000" stroke="none">
<path d="M2733 12780 c-56 -18 -73 -43 -73 -111 l0 -46 113 -6 c61 -4 375 -7
697 -7 679 0 637 -6 627 89 -4 32 -12 60 -21 67 -34 25 -274 34 -783 32 -426
-2 -520 -5 -560 -18z"/>
<path d="M2786 12258 c-3 -145 -8 -760 -11 -1368 -3 -608 -8 -1241 -11 -1408
l-7 -302 -81 -40 c-44 -22 -139 -82 -211 -133 l-130 -94 -6 -254 c-3 -140 -7
-560 -8 -934 -1 -390 -5 -686 -10 -694 -8 -12 -31 -7 -143 34 -73 26 -234 90
-358 142 -307 129 -431 176 -440 166 -4 -4 -22 -46 -40 -93 -19 -47 -65 -152
-103 -235 -105 -230 -105 -227 -37 -270 24 -15 47 -40 55 -59 23 -55 26 -48
-235 -656 -82 -190 -153 -365 -160 -390 -6 -25 -13 -52 -16 -61 -3 -11 7 -19
38 -28 44 -14 538 -225 608 -261 l42 -21 34 40 c49 56 74 58 219 17 66 -18
123 -32 126 -30 4 2 28 59 54 126 26 68 61 150 78 183 16 33 49 118 72 190 24
71 48 131 54 133 22 7 570 -222 584 -244 3 -5 8 -195 12 -422 6 -289 11 -415
19 -417 20 -7 1198 -26 1204 -20 3 3 10 166 14 363 5 196 12 393 16 437 l7 80
65 10 c56 9 67 15 87 43 12 18 26 56 32 84 10 46 30 325 31 420 0 27 5 38 18
43 28 8 1679 -14 1802 -25 78 -6 132 -18 208 -45 170 -59 366 -149 438 -200
101 -72 357 -326 404 -401 77 -122 161 -341 194 -506 27 -132 41 -363 28 -472
-20 -177 -121 -429 -226 -563 -112 -145 -314 -305 -464 -368 -116 -48 -269
-97 -294 -93 -25 3 -21 -11 -52 206 -7 57 -16 106 -19 109 -3 3 -716 3 -1584
2 -1989 -5 -2790 -5 -3808 0 l-810 3 -3 -161 -2 -161 72 -1 c40 -1 407 -4 815
-8 641 -5 744 -8 757 -21 12 -12 16 -82 23 -367 5 -194 11 -355 14 -357 3 -3
551 -10 1219 -17 867 -8 1219 -15 1227 -23 12 -11 33 -559 33 -868 0 -117 0
-118 -23 -118 -27 0 -328 147 -685 334 -132 69 -246 126 -254 126 -19 0 -341
-185 -523 -301 -82 -53 -235 -147 -340 -210 l-190 -114 -590 -6 c-324 -4 -607
-7 -627 -8 l-38 -1 -2 -207 -3 -208 -445 -12 c-245 -6 -457 -11 -472 -12 l-28
-1 0 -630 0 -630 4595 0 4595 0 0 630 0 630 -147 1 c-82 1 -473 4 -870 8 -556
5 -725 9 -734 18 -10 10 -13 99 -13 370 l-1 357 30 8 c17 4 102 19 190 33 247
40 445 97 630 180 197 89 582 426 699 613 116 186 236 502 265 703 14 96 41
408 41 476 0 70 -53 383 -85 500 -55 199 -167 463 -282 664 -93 161 -279 433
-404 590 -101 128 -167 217 -418 564 -180 249 -260 358 -342 466 -47 63 -130
175 -184 249 -54 74 -130 177 -169 228 -72 95 -199 268 -328 447 -40 55 -106
143 -148 195 -42 52 -113 149 -158 215 -44 66 -136 190 -203 275 -67 85 -162
209 -210 275 -49 66 -97 130 -108 143 l-20 23 -492 14 c-338 10 -495 18 -505
26 -10 8 -14 39 -14 119 0 89 -3 109 -16 114 -9 3 -179 6 -379 6 l-364 0 -34
43 c-19 23 -65 92 -104 152 -38 61 -99 152 -135 203 -37 51 -87 125 -112 165
l-45 72 -7 1373 -7 1372 -607 0 -608 0 -6 -262z m1208 -3548 c183 -57 281
-119 342 -217 67 -106 74 -139 74 -337 l0 -171 -60 -91 c-63 -97 -151 -186
-228 -231 l-47 -28 -213 2 c-174 2 -218 5 -247 19 -55 26 -218 191 -249 252
-45 88 -59 164 -53 277 7 127 33 211 97 308 52 80 100 122 205 179 113 61 257
75 379 38z"/>
<path d="M3749 8526 c-78 -22 -150 -68 -203 -129 -61 -69 -67 -86 -67 -197 0
-111 14 -169 59 -253 48 -88 76 -102 244 -116 225 -19 314 11 367 123 48 99
64 178 57 266 -12 131 -64 205 -189 268 -98 49 -186 62 -268 38z m160 -260
c41 -21 52 -56 41 -118 -13 -66 -29 -79 -89 -71 -86 10 -114 18 -125 35 -16
25 8 128 35 151 26 21 99 23 138 3z"/>
<path d="M2792 4742 c-6 -17 -13 -12 107 -66 133 -60 217 -83 354 -97 163 -17
273 -8 387 31 100 34 226 92 249 114 17 17 -193 26 -723 29 -294 2 -370 -1
-374 -11z"/>
<path d="M623 4162 c-487 -2 -583 -4 -583 -16 0 -39 489 -46 3493 -46 l2747 0
0 29 c0 27 -3 29 -47 35 -45 5 -4306 4 -5610 -2z"/>
</g>
</svg>
